<svg width="128" height="128" viewBox="0 0 128 128" fill="none" xmlns="http://www.w3.org/2000/svg">
    <g clip-path="url(#clip0_5_201)">
    <path d="M5.47488 127.725L75.7499 98.8251C77.6749 98.0251 78.3499 95.6751 77.1749 93.7251C73.8999 88.2001 67.0249 77.4751 58.2999 68.7501C49.8499 60.3001 39.5999 53.8501 34.2499 50.7501C32.2999 49.6251 29.9749 50.3001 29.1999 52.2001L0.274884 122.55C-0.975116 125.6 2.39988 129 5.47488 127.725Z" fill="#00AEEF"/>
    <path d="M34.6998 115.725L18.2748 122.475L5.5498 109.725L12.2998 93.3251L34.6998 115.725Z" fill="#2E3192"/>
    <path d="M64.4249 103.475L48.0249 110.225L17.7749 80.0001L24.5249 63.5751L64.4249 103.475Z" fill="#2E3192"/>
    <path d="M61.025 66.45C60.725 66.15 60.7 65.65 60.975 65.3L88.275 32.25L95.225 39.2L62.175 66.5C61.85 66.775 61.35 66.75 61.025 66.45Z" fill="#07B7EE"/>
    <path d="M66.2748 70.9751C70.3248 67.4501 88.9498 52.1751 106.9 54.5751L107.075 65.5751C107.075 65.5751 92.4998 58.7751 67.4248 72.6251C67.0248 72.8501 66.5498 72.7751 66.2248 72.4501C65.8248 72.0751 65.8248 71.4251 66.1998 71.0251C66.2248 71.0001 66.2498 70.9751 66.2748 70.9751Z" fill="#ED3F03"/>
    <path d="M56.4998 61.225C60.0248 57.175 75.2998 38.5501 72.8998 20.6L61.8998 20.425C61.8998 20.425 68.7248 35 54.8498 60.0751C54.6248 60.4751 54.6998 60.9501 55.0248 61.2751C55.4248 61.6751 56.0498 61.6751 56.4498 61.2751C56.4748 61.25 56.4998 61.225 56.4998 61.225Z" fill="#FCB424"/>
    <path d="M106.225 21.4251C103.675 25.5501 103.7 29.6251 106.225 33.7501C106.25 33.8001 106.25 33.8751 106.2 33.9001C106.175 33.9251 106.125 33.9251 106.1 33.9001C101.95 31.3001 97.8749 31.3501 93.7249 33.9001C93.6749 33.9251 93.5999 33.9251 93.5749 33.8751C93.5499 33.8501 93.5499 33.8001 93.5749 33.7751C96.1749 29.6251 96.1499 25.5751 93.5999 21.4001C93.5749 21.3501 93.5749 21.2751 93.6249 21.2501C93.6499 21.2251 93.6999 21.2251 93.7499 21.2501C97.8749 23.8251 101.925 23.8251 106.075 21.2751C106.125 21.2251 106.175 21.2251 106.225 21.2751C106.275 21.3001 106.275 21.3751 106.225 21.4251Z" fill="#07B7EE"/>
    <path d="M127.9 63.1251C123.075 63.6001 119.875 66.1001 118.125 70.6501C118.1 70.7001 118.05 70.7251 117.975 70.7001C117.925 70.6751 117.9 70.6501 117.9 70.6001C117.425 65.7251 114.925 62.5251 110.375 60.8001C110.325 60.7751 110.3 60.7251 110.325 60.6501C110.35 60.6001 110.375 60.5751 110.425 60.5751C115.3 60.1251 118.5 57.6251 120.25 53.0751C120.275 53.0251 120.325 53.0001 120.4 53.0251C120.45 53.0501 120.475 53.0751 120.475 53.1251C120.95 57.9751 123.425 61.1751 127.95 62.9251C128 62.9501 128.025 63.0251 128 63.0751C127.95 63.1001 127.925 63.1251 127.9 63.1251Z" fill="#ED3F03"/>
    <path d="M64.8748 0.100042C64.3748 4.92504 61.8998 8.15004 57.3498 9.87504C57.2998 9.90004 57.2748 9.95004 57.2998 10.025C57.3248 10.075 57.3498 10.1 57.3998 10.1C62.2748 10.55 65.4748 13.075 67.1998 17.625C67.2248 17.675 67.2748 17.7 67.3498 17.675C67.3998 17.65 67.4249 17.625 67.4249 17.575C67.8749 12.7 70.3749 9.50004 74.9249 7.75004C74.9748 7.72504 74.9998 7.67504 74.9748 7.60004C74.9498 7.55004 74.9248 7.52504 74.8748 7.52504C70.0248 7.05004 66.8248 4.57504 65.0748 0.050042C65.0498 4.19952e-05 64.9998 -0.024958 64.9498 4.19961e-05C64.8998 0.025042 64.8748 0.050042 64.8748 0.100042Z" fill="#FCB424"/>
    <path d="M100.175 84.7251L99.525 87.1751C99.45 87.4251 99.525 87.7251 99.725 87.9001L101.525 89.6751C101.825 89.9751 101.825 90.4251 101.55 90.7251C101.45 90.8251 101.325 90.9001 101.2 90.9251L98.75 91.5751C98.475 91.6501 98.275 91.8501 98.225 92.1001L97.575 94.5501C97.475 94.9501 97.075 95.2001 96.675 95.1001C96.525 95.0751 96.4 95.0001 96.325 94.9001L94.55 93.1251C94.35 92.9251 94.075 92.8501 93.825 92.9251L91.375 93.5751C90.975 93.7001 90.55 93.4501 90.45 93.0501C90.4 92.9251 90.4 92.7751 90.45 92.6251L91.1 90.1751C91.175 89.9251 91.1 89.6251 90.9 89.4501L89.125 87.6751C88.825 87.3751 88.825 86.9251 89.1 86.6251C89.2 86.5251 89.325 86.4501 89.45 86.4251L91.9 85.7751C92.15 85.7001 92.375 85.5001 92.425 85.2501L93.075 82.8001C93.175 82.4001 93.575 82.1501 93.975 82.2501C94.1 82.2751 94.225 82.3501 94.325 82.4501L96.125 84.2251C96.325 84.4251 96.6 84.5001 96.85 84.4251L99.3 83.7751C99.7 83.6501 100.125 83.9001 100.225 84.2751C100.2 84.4501 100.2 84.6001 100.175 84.7251Z" fill="#FCB424"/>
    <path d="M46.5498 31.1L45.8998 33.55C45.8248 33.8 45.8998 34.1 46.0998 34.275L47.8748 36.075C48.1748 36.375 48.1748 36.825 47.8998 37.125C47.7998 37.225 47.6748 37.3 47.5498 37.325L45.0998 37.975C44.8498 38.05 44.6248 38.25 44.5748 38.5L43.9248 40.95C43.8248 41.35 43.4248 41.6 43.0248 41.5C42.8998 41.475 42.7748 41.4 42.6748 41.3L40.8998 39.525C40.6998 39.325 40.4248 39.25 40.1748 39.325L37.7248 39.975C37.3248 40.1 36.8998 39.85 36.7998 39.475C36.7498 39.35 36.7498 39.2 36.7998 39.05L37.4498 36.6C37.5248 36.35 37.4498 36.05 37.2498 35.875L35.4748 34.1C35.1748 33.825 35.1748 33.35 35.4498 33.05C35.5498 32.95 35.6748 32.875 35.7998 32.85L38.2498 32.2C38.4998 32.125 38.7248 31.925 38.7748 31.65L39.4248 29.2C39.5248 28.8 39.9248 28.55 40.3248 28.65C40.4498 28.675 40.5748 28.75 40.6748 28.85L42.4498 30.65C42.6498 30.85 42.9248 30.925 43.1748 30.85L45.6248 30.2C46.0248 30.075 46.4498 30.325 46.5498 30.725C46.5748 30.825 46.5748 30.975 46.5498 31.1Z" fill="#ED3F03"/>
    </g>
    <defs>
    <clipPath id="clip0_5_201">
    <rect width="128" height="128" fill="white"/>
    </clipPath>
    </defs>
</svg>