<svg width="115" height="115" viewBox="0 0 115 115" fill="none" xmlns="http://www.w3.org/2000/svg">
    <g clip-path="url(#clip0_5_215)">
    <path d="M112.725 34.4962C107.704 21.7187 92.2353 14.0561 79.1338 19.1269C64.1788 24.9151 69.1373 48.7019 55.5536 53.5119C48.2159 56.1102 37.3688 46.4044 29.9551 44.9159C16.2942 42.1734 3.92716 51.8125 0.881906 65.1608C-2.22489 78.7789 2.75807 96.9678 17.7202 100.664C35.543 105.067 44.8267 89.0451 59.7781 84.4447C75.1211 79.7236 92.1809 90.8734 104.883 77.3075C114.267 67.2854 117.698 47.1489 112.725 34.4962Z" fill="url(#paint0_linear_5_215)"/>
    <path opacity="0.1" d="M107.104 40.1137C107.104 31.2423 99.9125 24.0503 91.0409 24.0503C84.1679 24.0503 78.3058 28.3684 76.0123 34.4385H17.9265C15.4455 34.4385 13.4343 36.4496 13.4343 38.9307V88.6614C13.4343 91.1425 15.4455 93.1536 17.9265 93.1536H97.0732C99.5543 93.1536 101.565 91.1425 101.565 88.6614V52.2433C104.957 49.298 107.104 44.9581 107.104 40.1137Z" fill="#2E3192"/>
    <path d="M97.0732 87.5384H17.9265C15.4455 87.5384 13.4343 85.5272 13.4343 83.0462V33.3154C13.4343 30.8344 15.4455 28.8232 17.9265 28.8232H97.0732C99.5543 28.8232 101.565 30.8344 101.565 33.3154V83.0462C101.565 85.5272 99.5543 87.5384 97.0732 87.5384Z" fill="white"/>
    <path d="M58.8683 50.2477L101.566 83.0462C101.566 85.5273 99.5545 87.5384 97.0735 87.5384H17.9265C15.4455 87.5384 13.4343 85.5273 13.4343 83.0462L56.1317 50.2477C56.9387 49.6277 58.0613 49.6277 58.8683 50.2477Z" fill="white"/>
    <path d="M56.1317 66.1142L13.4343 33.3154C13.4343 30.8344 15.4455 28.8232 17.9265 28.8232H97.0732C99.5543 28.8232 101.565 30.8344 101.565 33.3154L58.8683 66.1142C58.0613 66.7339 56.9387 66.7339 56.1317 66.1142Z" fill="white"/>
    <path d="M83.3182 81.5613H76.1006C75.4802 81.5613 74.9775 81.0586 74.9775 80.4383V75.4623C74.9775 74.8421 75.4802 74.3392 76.1006 74.3392H83.3182C83.9386 74.3392 84.4412 74.8421 84.4412 75.4623V80.4383C84.4412 81.0586 83.9386 81.5613 83.3182 81.5613Z" fill="#00AEEF"/>
    <path d="M70.0492 76.9835H63.7976C63.1772 76.9835 62.6746 76.4806 62.6746 75.8605C62.6746 75.2403 63.1772 74.7374 63.7976 74.7374H70.0492C70.6695 74.7374 71.1722 75.2403 71.1722 75.8605C71.1722 76.4806 70.6695 76.9835 70.0492 76.9835Z" fill="#2E3192"/>
    <path d="M70.0492 81.5615H48.075C47.4546 81.5615 46.9519 81.0586 46.9519 80.4385C46.9519 79.8183 47.4546 79.3154 48.075 79.3154H70.0492C70.6695 79.3154 71.1722 79.8183 71.1722 80.4385C71.1722 81.0588 70.6695 81.5615 70.0492 81.5615Z" fill="#2E3192"/>
    <path d="M106.876 37.0703C108.295 28.314 102.348 20.065 93.5913 18.6456C84.8351 17.2261 76.586 23.1737 75.1666 31.93C73.7471 40.6862 79.6948 48.9352 88.451 50.3547C97.2072 51.7741 105.456 45.8265 106.876 37.0703Z" fill="#00AEEF"/>
    <path d="M91.0409 51.6849C100.517 51.6849 108.227 43.9752 108.227 34.4984C108.227 25.0217 100.518 17.312 91.0409 17.312C81.5642 17.312 73.8545 25.0217 73.8545 34.4984C73.8545 40.0113 76.4664 44.9226 80.5148 48.0696L58.1841 65.2234C57.7819 65.533 57.219 65.5332 56.8158 65.2234L14.5978 32.793C14.8496 31.1825 16.2467 29.9463 17.9265 29.9463H69.4443C70.0646 29.9463 70.5673 29.4434 70.5673 28.8232C70.5673 28.2031 70.0646 27.7002 69.4443 27.7002H17.9265C14.8303 27.7002 12.3113 30.2192 12.3113 33.3154V83.0462C12.3113 86.1424 14.8303 88.6614 17.9265 88.6614H97.0732C100.169 88.6614 102.688 86.1424 102.688 83.0462V53.3663C102.688 52.7462 102.186 52.2433 101.565 52.2433C100.945 52.2433 100.442 52.7462 100.442 53.3663V80.7673L71.0394 58.1808L82.481 49.3918C85.0034 50.8473 87.9253 51.6849 91.0409 51.6849ZM43.9605 58.1808L14.5574 80.7673V35.5943L43.9605 58.1808ZM100.398 83.5657C100.147 85.1771 98.754 86.4153 97.0732 86.4153H17.9265C16.2458 86.4153 14.8527 85.1771 14.6016 83.5657L45.8041 59.597L55.4475 67.0046C56.0517 67.4686 56.7758 67.7009 57.5 67.7009C58.2241 67.7009 58.948 67.4689 59.5525 67.0046L69.1958 59.5968L100.398 83.5657ZM76.1006 34.4984C76.1006 26.2605 82.8027 19.5581 91.0409 19.5581C99.2791 19.5581 105.981 26.2602 105.981 34.4984C105.981 42.7364 99.2791 49.4388 91.0409 49.4388C82.8027 49.4388 76.1006 42.7364 76.1006 34.4984Z" fill="#2E3192"/>
    <path d="M84.0295 29.0205L86.3219 34.4985L84.0295 39.9764C83.6403 40.9068 84.5794 41.8389 85.5068 41.4427L99.347 35.5312C100.256 35.1429 100.256 33.854 99.347 33.4657L85.5068 27.5542C84.5794 27.158 83.6403 28.0901 84.0295 29.0205Z" fill="white"/>
    <path d="M74.3069 18.3441C73.4727 18.3441 72.6387 18.0267 72.004 17.3917C70.734 16.1218 70.734 14.0556 72.004 12.7859C73.2732 11.5164 75.3399 11.516 76.6096 12.7859C77.8795 14.0558 77.8795 16.122 76.6096 17.3917C75.9748 18.0267 75.1409 18.3441 74.3069 18.3441ZM74.3069 14.0785C74.0481 14.0785 73.7892 14.1769 73.592 14.3741C73.198 14.7681 73.198 15.4093 73.592 15.8035C73.9864 16.1975 74.627 16.1977 75.0214 15.8035C75.4153 15.4096 75.4153 14.7683 75.0214 14.3741C74.8244 14.1771 74.5654 14.0785 74.3069 14.0785Z" fill="#00AEEF"/>
    <path d="M49.0855 103.166C48.2515 103.166 47.4173 102.849 46.7825 102.214C45.5126 100.944 45.5126 98.878 46.7825 97.6083C48.052 96.3386 50.1189 96.3386 51.3884 97.6083C52.6583 98.8782 52.6583 100.944 51.3884 102.214C50.7536 102.849 49.9194 103.166 49.0855 103.166ZM49.0855 98.9009C48.8267 98.9009 48.5677 98.9993 48.3705 99.1965C47.9766 99.5905 47.9766 100.232 48.3705 100.626C48.7649 101.02 49.4057 101.02 49.8002 100.626C50.1941 100.232 50.1941 99.5907 49.8002 99.1965C49.6032 98.9995 49.3442 98.9009 49.0855 98.9009Z" fill="#00AEEF"/>
    <path d="M66.2102 21.2361C65.9229 21.2361 65.6351 21.1265 65.4162 20.9073L64.0764 19.5677L62.7366 20.9073C62.2984 21.3457 61.5868 21.3457 61.1486 20.9073C60.7099 20.4686 60.7099 19.7575 61.1486 19.3191L63.2824 17.1853C63.7206 16.7468 64.4321 16.7468 64.8704 17.1853L67.0041 19.3191C67.4428 19.7577 67.4428 20.4688 67.0041 20.9073C66.7852 21.1263 66.4977 21.2361 66.2102 21.2361Z" fill="#00AEEF"/>
    <path d="M98.7709 98.9004C98.4837 98.9004 98.1959 98.7908 97.9769 98.5716L96.6372 97.232L95.2974 98.5716C94.8591 99.01 94.1476 99.01 93.7094 98.5716C93.2707 98.1329 93.2707 97.4218 93.7094 96.9834L95.8432 94.8496C96.2814 94.4111 96.9929 94.4111 97.4311 94.8496L99.5649 96.9834C100.004 97.422 100.004 98.1331 99.5649 98.5716C99.3459 98.7906 99.0582 98.9004 98.7709 98.9004Z" fill="#00AEEF"/>
    <path d="M40.1789 99.9673C39.8916 99.9673 39.6039 99.8577 39.3849 99.6385L38.0451 98.2989L36.7053 99.6385C36.2671 100.077 35.5555 100.077 35.1173 99.6385C34.6787 99.1998 34.6787 98.4887 35.1173 98.0503L37.2511 95.9165C37.6893 95.478 38.4009 95.478 38.8391 95.9165L40.9729 98.0503C41.4116 98.4889 41.4116 99.2 40.9729 99.6385C40.7537 99.8575 40.4662 99.9673 40.1789 99.9673Z" fill="#00AEEF"/>
    </g>
    <defs>
    <linearGradient id="paint0_linear_5_215" x1="97.1064" y1="112.899" x2="44.5478" y2="43.2702" gradientUnits="userSpaceOnUse">
    <stop stop-color="#00AEEF" stop-opacity="0"/>
    <stop offset="1" stop-color="#00AEEF"/>
    </linearGradient>
    <clipPath id="clip0_5_215">
    <rect width="115" height="115" fill="white"/>
    </clipPath>
    </defs>
</svg>