<svg width="107" height="107" viewBox="0 0 107 107" fill="none" xmlns="http://www.w3.org/2000/svg">
    <g clip-path="url(#clip0_41_1190)">
    <path d="M46.813 93.6214C72.6654 93.6214 93.6229 72.6639 93.6229 46.8116C93.6229 20.9592 72.6654 0.00170898 46.813 0.00170898C20.9607 0.00170898 0.00317383 20.9592 0.00317383 46.8116C0.00317383 72.6639 20.9607 93.6214 46.813 93.6214Z" fill="#6FD7A3"/>
    <path d="M6.69029 46.8115C6.69029 22.0833 25.8648 1.83366 50.1566 0.119249C22.9354 -1.80205 0.00317383 19.7411 0.00317383 46.8115C0.00317383 73.8826 22.936 95.4247 50.1566 93.5037C25.8646 91.7892 6.69029 71.5396 6.69029 46.8115Z" fill="#3EC3A4"/>
    <path d="M86.2732 46.8111C86.2732 47.3588 86.9248 47.904 86.9031 48.4463C86.0667 69.3122 69.2952 86.0769 48.4264 86.9021C47.8912 86.9232 47.3533 86.4164 46.8131 86.4164C46.2723 86.4164 45.734 86.9232 45.1984 86.9021C35.3364 86.5117 26.3892 82.5617 19.6068 76.3013C19.2018 75.9277 19.3124 74.8811 18.923 74.4912C18.5507 74.1182 17.6782 74.4024 17.3206 74.015C11.0657 67.2374 7.11776 58.2985 6.72301 48.4455C6.70128 47.9034 7.37104 47.3586 7.37104 46.8111C7.37104 46.2705 6.70086 45.7326 6.72218 45.1972C7.11233 35.3348 11.0623 26.3876 17.3229 19.605C17.7028 19.1935 18.605 19.4608 19.0016 19.0656C19.3677 18.7008 19.2269 17.672 19.6068 17.3213C26.3892 11.0607 35.3364 7.11073 45.1988 6.72037C45.7342 6.69926 46.2723 7.20581 46.8129 7.20581C47.3538 7.20581 47.8921 6.69926 48.4275 6.72037C58.2836 7.11052 67.2256 11.0559 74.0067 17.3096C74.4078 17.6795 74.1394 18.5035 74.525 18.889C74.9074 19.2717 75.9441 19.2159 76.3111 19.6136C82.5671 26.3953 86.5139 35.3394 86.9039 45.1979C86.925 45.733 86.2732 46.2709 86.2732 46.8111Z" fill="#EAF6FF"/>
    <path d="M13.1487 46.8114C13.1487 25.7392 29.3929 8.46135 50.0421 6.81695C49.5095 6.77453 48.9741 6.74255 48.4358 6.72103C47.8974 6.69951 47.3564 7.20606 46.8129 7.20606C46.2721 7.20606 45.7339 6.69951 45.1984 6.72061C35.3317 7.11118 26.381 11.0645 19.5975 17.3299C19.2072 17.6904 19.3773 18.6903 19.0016 19.0659C18.6187 19.4485 17.6905 19.2071 17.3233 19.605C11.0602 26.3904 7.10935 35.3423 6.72191 45.2096C6.70102 45.741 7.3714 46.2749 7.3714 46.8116C7.3714 47.3522 6.70123 47.8905 6.72254 48.4259C7.11269 58.2881 11.0629 67.2351 17.3231 74.0177C17.6735 74.3974 18.5585 74.1255 18.9232 74.4914C19.3186 74.8881 19.1951 75.9214 19.6067 76.3016C26.3892 82.562 35.3363 86.512 45.1986 86.9023C45.7342 86.9234 46.2725 86.4167 46.8133 86.4167C47.3537 86.4167 47.8914 86.9234 48.4266 86.9023C48.968 86.8808 49.5067 86.8486 50.0425 86.806C29.3931 85.1612 13.1487 67.8833 13.1487 46.8114Z" fill="#D8ECFE"/>
    <path d="M83.5922 106.996C96.5184 106.996 106.997 96.5169 106.997 83.5907C106.997 70.6645 96.5184 60.1858 83.5922 60.1858C70.666 60.1858 60.1873 70.6645 60.1873 83.5907C60.1873 96.5169 70.666 106.996 83.5922 106.996Z" fill="#EF6062"/>
    <path d="M66.6455 83.5907C66.6455 71.7602 75.4232 61.9798 86.8212 60.4069C85.7657 60.2612 84.6876 60.1858 83.5919 60.1858C70.6657 60.1858 60.187 70.6645 60.187 83.5907C60.187 97.7198 72.6562 108.73 86.8212 106.775C75.4232 105.202 66.6455 95.4213 66.6455 83.5907Z" fill="#EA4952"/>
    <path d="M83.592 88.2785C81.7077 88.2785 80.141 86.8282 79.9958 84.9496L78.9837 71.8509C78.7762 69.1661 80.899 66.8728 83.592 66.8728C86.285 66.8728 88.4078 69.1659 88.2003 71.8509L87.1882 84.9496C87.043 86.828 85.4761 88.2785 83.592 88.2785Z" fill="#EAF6FF"/>
    <path d="M84.3015 84.9494L83.2895 71.8508C83.1419 69.9431 84.1709 68.2333 85.7449 67.4033C82.5633 65.7252 78.7021 68.2034 78.9838 71.8508L79.9959 84.9494C80.2155 87.7925 83.4886 89.2457 85.7449 87.5656C84.9351 86.9629 84.3847 86.0265 84.3015 84.9494Z" fill="#D8ECFE"/>
    <path d="M83.5921 100.308C85.4387 100.308 86.9357 98.8115 86.9357 96.9649C86.9357 95.1183 85.4387 93.6213 83.5921 93.6213C81.7455 93.6213 80.2485 95.1183 80.2485 96.9649C80.2485 98.8115 81.7455 100.308 83.5921 100.308Z" fill="#EAF6FF"/>
    <path d="M85.7447 94.4065C83.5925 92.5935 80.2483 94.1133 80.2483 96.965C80.2483 99.8153 83.5919 101.337 85.7447 99.5232C84.1559 98.1849 84.1584 95.7429 85.7447 94.4065Z" fill="#D8ECFE"/>
    <path d="M62.4105 45.1967H48.4276V23.4065C48.4276 22.5146 47.7047 21.792 46.813 21.792C45.9213 21.792 45.1985 22.5148 45.1985 23.4065C45.2044 47.8442 45.1843 46.3724 45.2142 46.5862C45.0779 47.5614 45.8344 48.426 46.813 48.426H62.4105C63.3024 48.426 64.0251 47.7031 64.0251 46.8114C64.0251 45.9198 63.3022 45.1967 62.4105 45.1967Z" fill="#565F64"/>
    <path d="M46.813 50.1549C48.6596 50.1549 50.1566 48.6579 50.1566 46.8113C50.1566 44.9647 48.6596 43.4678 46.813 43.4678C44.9664 43.4678 43.4695 44.9647 43.4695 46.8113C43.4695 48.6579 44.9664 50.1549 46.813 50.1549Z" fill="#EF6062"/>
    <path d="M45.1985 6.72069V13.3758C45.1985 14.2677 45.9213 14.9904 46.813 14.9904C47.7047 14.9904 48.4275 14.2675 48.4275 13.3758V6.72069C47.3486 6.67806 46.2791 6.67806 45.1985 6.72069Z" fill="#565F64"/>
    <path d="M74.0195 17.3215L69.3139 22.0272C68.6834 22.6576 68.6834 23.6801 69.3141 24.3106C69.9446 24.9411 70.9667 24.9411 71.5975 24.3104L76.3028 19.6048C75.5724 18.8138 74.8107 18.0519 74.0195 17.3215Z" fill="#565F64"/>
    <path d="M78.634 46.8113C78.634 47.7032 79.3569 48.4258 80.2486 48.4258H86.9037C86.9463 47.3467 86.9463 46.2771 86.9037 45.1965H80.2486C79.3569 45.1967 78.634 45.9196 78.634 46.8113Z" fill="#565F64"/>
    <path d="M17.3232 19.6052L22.0289 24.3108C22.6598 24.9413 23.6816 24.9411 24.3125 24.3108C24.943 23.6801 24.943 22.6579 24.3125 22.0272L19.6069 17.3215C18.8155 18.0519 18.0536 18.8138 17.3232 19.6052Z" fill="#565F64"/>
    <path d="M6.7224 48.4261H13.3776C14.2694 48.4261 14.9921 47.7032 14.9921 46.8115C14.9921 45.9199 14.2692 45.197 13.3776 45.197H6.7224C6.7013 45.7326 6.69043 46.2709 6.69043 46.8118C6.69043 47.3522 6.70109 47.8905 6.7224 48.4261Z" fill="#565F64"/>
    <path d="M22.0291 69.3121L17.3235 74.0177C18.0538 74.8089 18.8155 75.5708 19.6069 76.3012L24.3126 71.5959C24.9433 70.9655 24.9433 69.943 24.3128 69.3125C23.6819 68.6816 22.6596 68.6818 22.0291 69.3121Z" fill="#565F64"/>
    <path d="M46.813 78.6323C45.9211 78.6323 45.1985 79.3552 45.1985 80.2468V86.902C46.2776 86.9446 47.3471 86.9448 48.4277 86.902V80.2468C48.4277 79.3552 47.7049 78.6323 46.813 78.6323Z" fill="#565F64"/>
    </g>
    <defs>
    <clipPath id="clip0_41_1190">
    <rect width="107" height="107" fill="white"/>
    </clipPath>
    </defs>
</svg>